<svg id="visual" viewBox="0 0 900 600" width="900" height="600" xmlns="http://www.w3.org/2000/svg" xmlns:xlink="http://www.w3.org/1999/xlink" version="1.1"><path d="M0 91L13.7 85C27.3 79 54.7 67 82 68C109.3 69 136.7 83 163.8 90C191 97 218 97 245.2 97C272.3 97 299.7 97 327 96C354.3 95 381.7 93 409 90C436.3 87 463.7 83 491 85C518.3 87 545.7 95 573 92C600.3 89 627.7 75 654.8 64C682 53 709 45 736.2 45C763.3 45 790.7 53 818 59C845.3 65 872.7 69 886.3 71L900 73L900 0L886.3 0C872.7 0 845.3 0 818 0C790.7 0 763.3 0 736.2 0C709 0 682 0 654.8 0C627.7 0 600.3 0 573 0C545.7 0 518.3 0 491 0C463.7 0 436.3 0 409 0C381.7 0 354.3 0 327 0C299.7 0 272.3 0 245.2 0C218 0 191 0 163.8 0C136.7 0 109.3 0 82 0C54.7 0 27.3 0 13.7 0L0 0Z" fill="#6ee2f5"></path><path d="M0 241L13.7 233C27.3 225 54.7 209 82 204C109.3 199 136.7 205 163.8 225C191 245 218 279 245.2 273C272.3 267 299.7 221 327 202C354.3 183 381.7 191 409 205C436.3 219 463.7 239 491 248C518.3 257 545.7 255 573 266C600.3 277 627.7 301 654.8 311C682 321 709 317 736.2 290C763.3 263 790.7 213 818 189C845.3 165 872.7 167 886.3 168L900 169L900 71L886.3 69C872.7 67 845.3 63 818 57C790.7 51 763.3 43 736.2 43C709 43 682 51 654.8 62C627.7 73 600.3 87 573 90C545.7 93 518.3 85 491 83C463.7 81 436.3 85 409 88C381.7 91 354.3 93 327 94C299.7 95 272.3 95 245.2 95C218 95 191 95 163.8 88C136.7 81 109.3 67 82 66C54.7 65 27.3 77 13.7 83L0 89Z" fill="#1ac7fd"></path><path d="M0 373L13.7 367C27.3 361 54.7 349 82 358C109.3 367 136.7 397 163.8 422C191 447 218 467 245.2 466C272.3 465 299.7 443 327 439C354.3 435 381.7 449 409 457C436.3 465 463.7 467 491 460C518.3 453 545.7 437 573 434C600.3 431 627.7 441 654.8 443C682 445 709 439 736.2 433C763.3 427 790.7 421 818 420C845.3 419 872.7 423 886.3 425L900 427L900 167L886.3 166C872.7 165 845.3 163 818 187C790.7 211 763.3 261 736.2 288C709 315 682 319 654.8 309C627.7 299 600.3 275 573 264C545.7 253 518.3 255 491 246C463.7 237 436.3 217 409 203C381.7 189 354.3 181 327 200C299.7 219 272.3 265 245.2 271C218 277 191 243 163.8 223C136.7 203 109.3 197 82 202C54.7 207 27.3 223 13.7 231L0 239Z" fill="#00a8ff"></path><path d="M0 505L13.7 500C27.3 495 54.7 485 82 488C109.3 491 136.7 507 163.8 520C191 533 218 543 245.2 541C272.3 539 299.7 525 327 520C354.3 515 381.7 519 409 523C436.3 527 463.7 531 491 527C518.3 523 545.7 511 573 515C600.3 519 627.7 539 654.8 545C682 551 709 543 736.2 542C763.3 541 790.7 547 818 548C845.3 549 872.7 545 886.3 543L900 541L900 425L886.3 423C872.7 421 845.3 417 818 418C790.7 419 763.3 425 736.2 431C709 437 682 443 654.8 441C627.7 439 600.3 429 573 432C545.7 435 518.3 451 491 458C463.7 465 436.3 463 409 455C381.7 447 354.3 433 327 437C299.7 441 272.3 463 245.2 464C218 465 191 445 163.8 420C136.7 395 109.3 365 82 356C54.7 347 27.3 359 13.7 365L0 371Z" fill="#007dff"></path><path d="M0 601L13.7 601C27.3 601 54.7 601 82 601C109.3 601 136.7 601 163.8 601C191 601 218 601 245.2 601C272.3 601 299.7 601 327 601C354.3 601 381.7 601 409 601C436.3 601 463.7 601 491 601C518.3 601 545.7 601 573 601C600.3 601 627.7 601 654.8 601C682 601 709 601 736.2 601C763.3 601 790.7 601 818 601C845.3 601 872.7 601 886.3 601L900 601L900 539L886.3 541C872.7 543 845.3 547 818 546C790.7 545 763.3 539 736.2 540C709 541 682 549 654.8 543C627.7 537 600.3 517 573 513C545.7 509 518.3 521 491 525C463.7 529 436.3 525 409 521C381.7 517 354.3 513 327 518C299.7 523 272.3 537 245.2 539C218 541 191 531 163.8 518C136.7 505 109.3 489 82 486C54.7 483 27.3 493 13.7 498L0 503Z" fill="#8c1cff"></path></svg>